<svg xmlns="http://www.w3.org/2000/svg" width="93" height="86" fill="none" viewBox="0 0 93 86">
  <path stroke="#000" stroke-width="7.272" d="M0 4h20.284M4.02 4.017l-.384 81.519M0 81.883h20.284"/>
  <path fill="#000" d="M20.284 14.734h10.083v10.083H20.284zm21.175 0h10.083v10.083H41.459zm21.174 0h10.083v10.083H62.633zM20.284 37.421h10.083v10.083H20.284zm21.175 0h10.083v10.083H41.459z"/>
  <path fill="#1EEC4C" d="M62.633 37.421h10.083v10.083H62.633z"/>
  <path fill="#000" d="M20.284 60.108h10.083v10.083H20.284zm21.175 0h10.083v10.083H41.459zm21.174 0h10.083v10.083H62.633z"/>
  <path stroke="#000" stroke-width="7.272" d="M93 4H72.716m16.264.018.384 81.518M93 81.883H72.716"/>
</svg>
