<svg xmlns="http://www.w3.org/2000/svg" width="50" height="46" fill="none" viewBox="0 0 50 46">
  <path stroke="#fff" stroke-width="3.909" d="M0 2h10.905m-8.744.009-.206 43.827M0 43.872h10.905"/>
  <path fill="#fff" d="M10.905 7.771h5.421v5.421h-5.421zm11.385 0h5.421v5.421H22.29zm11.384 0h5.421v5.421h-5.421zM10.905 19.968h5.421v5.421h-5.421zm11.385 0h5.421v5.421H22.29z"/>
  <path fill="#1EEC4C" d="M33.674 19.968h5.421v5.421h-5.421z"/>
  <path fill="#fff" d="M10.905 32.166h5.421v5.421h-5.421zm11.385 0h5.421v5.421H22.29zm11.384 0h5.421v5.421h-5.421z"/>
  <path stroke="#fff" stroke-width="3.909" d="M50 2H39.095m8.743.009.207 43.827M50 43.872H39.095"/>
</svg>
